<svg width="822" height="136" viewBox="0 0 822 136" fill="none" xmlns="http://www.w3.org/2000/svg">
<path d="M88 0C94.6274 0 100 5.37258 100 12V124C100 130.627 94.6274 136 88 136C81.3726 136 76 130.627 76 124V12C76 5.37258 81.3726 0 88 0ZM354 0C360.627 0 366 5.37258 366 12V124C366 130.627 360.627 136 354 136C347.373 136 342 130.627 342 124V12C342 5.37258 347.373 0 354 0ZM392 0C398.627 0 404 5.37258 404 12V124C404 130.627 398.627 136 392 136C385.373 136 380 130.627 380 124V12C380 5.37258 385.373 0 392 0ZM430 0C436.627 0 442 5.37258 442 12V124C442 130.627 436.627 136 430 136C423.373 136 418 130.627 418 124V12C418 5.37258 423.373 0 430 0ZM696 0C702.627 0 708 5.37258 708 12V124C708 130.627 702.627 136 696 136C689.373 136 684 130.627 684 124V12C684 5.37258 689.373 0 696 0ZM278 13C284.627 13 290 18.3726 290 25V111C290 117.627 284.627 123 278 123C271.373 123 266 117.627 266 111V25C266 18.3726 271.373 13 278 13ZM620 13C626.627 13 632 18.3726 632 25V111C632 117.627 626.627 123 620 123C613.373 123 608 117.627 608 111V25C608 18.3726 613.373 13 620 13ZM50 18C56.6274 18 62 23.3726 62 30V106C62 112.627 56.6274 118 50 118C43.3726 118 38 112.627 38 106V30C38 23.3726 43.3726 18 50 18ZM240 18C246.627 18 252 23.3726 252 30V106C252 112.627 246.627 118 240 118C233.373 118 228 112.627 228 106V30C228 23.3726 233.373 18 240 18ZM582 18C588.627 18 594 23.3726 594 30V106C594 112.627 588.627 118 582 118C575.373 118 570 112.627 570 106V30C570 23.3726 575.373 18 582 18ZM772 14C778.627 14 784 19.3726 784 26V102C784 108.627 778.627 114 772 114C765.373 114 760 108.627 760 102V26C760 19.3726 765.373 14 772 14ZM164 31C170.627 31 176 36.3726 176 43V94C176 100.627 170.627 106 164 106C157.373 106 152 100.627 152 94V43C152 36.3726 157.373 31 164 31ZM316 31C322.627 31 328 36.3726 328 43V94C328 100.627 322.627 106 316 106C309.373 106 304 100.627 304 94V43C304 36.3726 309.373 31 316 31ZM506 31C512.627 31 518 36.3726 518 43V94C518 100.627 512.627 106 506 106C499.373 106 494 100.627 494 94V43C494 36.3726 499.373 31 506 31ZM658 31C664.627 31 670 36.3726 670 43V94C670 100.627 664.627 106 658 106C651.373 106 646 100.627 646 94V43C646 36.3726 651.373 31 658 31ZM126 37C132.627 37 138 42.3726 138 49V87C138 93.6274 132.627 99 126 99C119.373 99 114 93.6274 114 87V49C114 42.3726 119.373 37 126 37ZM202 37C208.627 37 214 42.3726 214 49V87C214 93.6274 208.627 99 202 99C195.373 99 190 93.6274 190 87V49C190 42.3726 195.373 37 202 37ZM468 37C474.627 37 480 42.3726 480 49V87C480 93.6274 474.627 99 468 99C461.373 99 456 93.6274 456 87V49C456 42.3726 461.373 37 468 37ZM544 37C550.627 37 556 42.3726 556 49V87C556 93.6274 550.627 99 544 99C537.373 99 532 93.6274 532 87V49C532 42.3726 537.373 37 544 37ZM12 41C18.6274 41 24 46.3726 24 53V83C24 89.6274 18.6274 95 12 95C5.37258 95 4.83208e-08 89.6274 0 83V53C0 46.3726 5.37258 41 12 41ZM734 37C740.627 37 746 42.3726 746 49V79C746 85.6274 740.627 91 734 91C727.373 91 722 85.6274 722 79V49C722 42.3726 727.373 37 734 37ZM810 37C816.627 37 822 42.3726 822 49V79C822 85.6274 816.627 91 810 91C803.373 91 798 85.6274 798 79V49C798 42.3726 803.373 37 810 37Z" fill="#D9D9D9"/>
</svg>
