<svg width="496" height="414" viewBox="0 0 496 414" fill="none" xmlns="http://www.w3.org/2000/svg">
<path d="M221 285C216 298.5 200.701 326 151.501 328C51 316 140.3 285 143.5 279C122.5 286.333 59.6 319.3 0 288.5C9.83333 273.166 35.2 242.6 58 243C62.8333 239 76 231 90 231C69.8333 221.166 24.9 194.8 6.5 168C6 166.166 8.1 162.6 20.5 163C32.8333 157 59.7 146.8 68.5 154C61.8333 144.667 44.3 114.8 27.5 70L33 74C47.1667 71.8333 85.5 75.9 125.5 109.5C121.167 80.1667 111.5 19 118 8C117.5 9.5 117.2 13.5 120 17.5C129.667 24.5 150.6 40.4 157 48C170.28 36.9074 194.778 13.2196 193.18 2.0604C192.894 1.28689 192.662 0.568304 192.5 0C192.851 0.62595 193.074 1.31524 193.18 2.0604C194.07 4.46274 195.487 7.39485 197 8C211.5 16.1667 243 37.9 253 59.5C269.404 36.8743 308.962 17.7091 326 13.5C337.333 31.8333 359.2 71.9 356 85.5C359.833 81.3333 379.1 73.8 425.5 77C425.833 76.6667 426.5 75.1 426.5 71.5C428.167 74.3333 430.5 81.1 426.5 85.5C419.5 100.833 402.6 136.6 391 157C403 149.667 434 138.4 462 152C463.689 152 466.429 151.68 467.781 150.609C468.177 149.715 468.408 149.015 468.5 148.5C468.759 149.408 468.43 150.095 467.781 150.609C464.591 157.815 450.72 177.636 413 215C428.167 217.833 459.7 224.7 464.5 229.5C470.667 238.5 484.4 256 490 254L496 251.5C471.667 265 414.8 292.1 382 292.5C359.506 292.774 339.331 285.696 325.703 278.748C355.159 298.427 391.314 332.196 371.5 358.5C342.333 367.5 276.7 365.399 247.5 285C233.667 326.166 217.201 409.6 228.001 414H193.5C202.668 378.833 222.201 303.799 221 285Z" fill="white"/>
</svg>
