<svg width="384" height="425" viewBox="0 0 384 425" fill="none" xmlns="http://www.w3.org/2000/svg">
<path d="M280.001 325C307.615 325 330.001 347.386 330.001 375C330.001 402.614 307.615 425 280.001 425C252.387 425 230.001 402.614 230.001 375C230.001 347.386 252.387 325 280.001 325ZM202.501 77L235.501 44L255.501 62L202.501 115V146.18L234.501 114L254.501 132L202.501 185V225H202.499L202.366 267.278L216.879 257.117L230.182 183.712L256.685 190.181L248.679 234.851L274.22 216.967L287.522 143.562L313.451 149.211L305.348 195.171L368.422 151.006L383.335 172.304L320.261 216.469L366.221 224.573L362.947 251.28L289.133 238.265L263.592 256.148L308.307 263.904L305.033 290.611L231.792 278.415L202.267 299.089L202.001 384H177.001L176.921 358.515L151.657 340.825L78.1289 353.431L75.1426 326.313L119.857 318.559L94.3164 300.675L20.7881 313.28L17.2285 286.982L63.1885 278.879L0.113281 234.713L15.0264 213.415L78.1016 257.581L69.9971 211.621L96.2139 205.562L109.229 279.377L134.771 297.261L126.765 252.59L152.98 246.531L166.57 319.527L176.821 326.705L176.503 225H176.501V185L124.001 132L144.501 114L176.501 146.18V115L124.001 62L143.501 44L176.501 77V0H202.501V77Z" fill="white"/>
</svg>
